<?xml version="1.0" encoding="UTF-8" standalone="no"?>
<!-- Created with Inkscape (http://www.inkscape.org/) -->

<svg
   xmlns:dc="http://purl.org/dc/elements/1.1/"
   xmlns:cc="http://creativecommons.org/ns#"
   xmlns:rdf="http://www.w3.org/1999/02/22-rdf-syntax-ns#"
   xmlns:svg="http://www.w3.org/2000/svg"
   xmlns="http://www.w3.org/2000/svg"
   xmlns:xlink="http://www.w3.org/1999/xlink"
   xmlns:sodipodi="http://sodipodi.sourceforge.net/DTD/sodipodi-0.dtd"
   xmlns:inkscape="http://www.inkscape.org/namespaces/inkscape"
   width="297mm"
   height="210mm"
   viewBox="0 0 297 210"
   version="1.1"
   id="svg8"
   inkscape:version="0.92.2 (5c3e80d, 2017-08-06)"
   sodipodi:docname="juez.svg">
  <defs
     id="defs2">
    <linearGradient
       inkscape:collect="always"
       id="linearGradient897">
      <stop
         style="stop-color:#000000;stop-opacity:1;"
         offset="0"
         id="stop893" />
      <stop
         style="stop-color:#000000;stop-opacity:0;"
         offset="1"
         id="stop895" />
    </linearGradient>
    <inkscape:path-effect
       effect="spiro"
       id="path-effect832"
       is_visible="true" />
    <linearGradient
       inkscape:collect="always"
       xlink:href="#linearGradient897"
       id="linearGradient899"
       x1="28.350809"
       y1="154.33846"
       x2="152.40912"
       y2="154.33846"
       gradientUnits="userSpaceOnUse" />
  </defs>
  <sodipodi:namedview
     id="base"
     pagecolor="#ffffff"
     bordercolor="#666666"
     borderopacity="1.0"
     inkscape:pageopacity="0.0"
     inkscape:pageshadow="2"
     inkscape:zoom="1.1039267"
     inkscape:cx="313.57752"
     inkscape:cy="525.61039"
     inkscape:document-units="mm"
     inkscape:current-layer="layer1"
     showgrid="false"
     inkscape:window-width="1366"
     inkscape:window-height="705"
     inkscape:window-x="-8"
     inkscape:window-y="-8"
     inkscape:window-maximized="1" />
  <metadata
     id="metadata5">
    <rdf:RDF>
      <cc:Work
         rdf:about="">
        <dc:format>image/svg+xml</dc:format>
        <dc:type
           rdf:resource="http://purl.org/dc/dcmitype/StillImage" />
        <dc:title />
      </cc:Work>
    </rdf:RDF>
  </metadata>
  <g
     inkscape:label="Capa 1"
     inkscape:groupmode="layer"
     id="layer1"
     transform="translate(0,-87)">
    <path
       style="opacity:1;fill:#ffe680;fill-opacity:1;fill-rule:nonzero;stroke:none;stroke-width:0.66499996;stroke-linecap:butt;stroke-linejoin:miter;stroke-miterlimit:4;stroke-dasharray:none;stroke-dashoffset:0;stroke-opacity:1;paint-order:stroke fill markers"
       d="M 152.40912,87.950227 V 210.23666 H 0.21300847 V 87.950227 Z M 80.221949,98.44025 c -0.74021,-0.03466 -1.465933,0.14181 -2.368651,0.416555 -1.542295,0.469312 -3.608755,2.418845 -3.608755,3.404375 0,0.58642 -1.899452,2.0972 -3.680333,2.92699 -2.14502,0.99949 -3.160918,2.98245 -2.833461,5.53171 l 0.26215,2.0399 -9.368631,8.6224 c -7.341134,6.75658 -9.522185,8.53064 -10.081645,8.20071 -1.935321,-1.14125 -5.813574,0.24384 -7.158946,2.55673 -1.197139,2.05806 -1.868949,2.68906 -3.865326,3.62809 -2.839058,1.3354 -4.099171,4.62673 -2.727484,7.12334 0.751782,1.3683 18.493193,17.78731 20.035005,18.54159 2.89941,1.41846 6.443976,0.36118 7.956553,-2.37244 1.019766,-1.843 1.701554,-2.45943 3.947134,-3.56981 0.834636,-0.41269 1.93934,-1.49983 2.455105,-2.41615 0.778892,-1.38383 0.855774,-1.9491 0.454581,-3.33497 -0.470397,-1.62485 -0.425396,-1.72018 1.713275,-3.66239 l 2.195745,-1.99446 24.503649,22.63766 c 23.983346,22.15786 26.563256,24.29868 29.262336,24.2773 0.52356,-0.003 1.61657,-0.27473 2.42906,-0.60082 2.613,-1.04874 3.82163,-3.34476 3.59203,-6.82336 -0.0536,-0.81136 -6.50438,-7.02194 -25.40536,-24.45985 l -25.333801,-23.37305 2.560154,-2.3896 c 2.515399,-2.34837 2.597868,-2.38554 4.781922,-2.14704 2.872557,0.31368 4.934313,-0.64403 6.161475,-2.86183 1.018467,-1.84066 1.701957,-2.46007 3.93412,-3.56382 1.65632,-0.819 3.24435,-3.15415 3.24435,-4.77148 0,-2.14326 -1.71351,-4.11263 -10.85323,-12.47247 -7.633414,-6.98207 -9.98238,-8.989832 -12.203021,-9.09381 z m -0.14501,2.71871 c 0.173703,0.006 0.346971,0.0285 0.518721,0.0686 1.392967,0.32452 19.82677,17.45987 19.82677,18.43016 0,1.66275 -1.659097,3.20714 -3.565992,3.31955 -0.259547,0.0149 -5.01061,-4.15421 -10.558535,-9.26523 l -10.087224,-9.29266 0.687913,-1.2265 c 0.734622,-1.30978 1.96245,-2.07695 3.178347,-2.03391 z m -6.513796,5.80769 c 1.094265,0.0571 2.749535,1.49306 10.776996,8.87954 8.735883,8.03833 9.893256,9.26481 9.652163,10.23032 -0.337924,1.35331 -1.909068,2.63301 -3.233194,2.63301 -0.651777,0 -4.225114,-2.96702 -10.437683,-8.66697 -5.195524,-4.76685 -9.568896,-9.11213 -9.718166,-9.65694 -0.361351,-1.31887 0.887267,-2.99654 2.50902,-3.37182 0.150389,-0.0348 0.294539,-0.0552 0.450864,-0.0472 z m -3.373561,7.70103 7.739018,7.12591 7.739953,7.12676 -9.157609,8.45186 -9.157613,8.45184 -7.739952,-7.12678 -7.739947,-7.12591 9.157608,-8.45184 z m -0.0084,3.92808 c -1.144321,0.12704 -3.273182,1.79046 -7.475941,5.61571 -3.381036,3.07732 -6.358812,5.95357 -6.617911,6.39137 -0.506718,0.85628 0.196682,2.05618 1.205704,2.05618 0.298548,0 3.623215,-2.84497 7.387633,-6.32196 4.845863,-4.47585 6.758973,-6.52606 6.552838,-7.02134 -0.215726,-0.51831 -0.532177,-0.77774 -1.052323,-0.71996 z M 46.45279,131.93734 c 0.263859,-0.009 0.533077,0.0183 0.805974,0.0814 1.373234,0.31776 19.156446,16.72079 19.587863,18.06761 0.527798,1.64772 -1.153441,3.48225 -3.307562,3.60924 -0.259547,0.0149 -5.010608,-4.15421 -10.558534,-9.26523 l -10.087223,-9.29265 0.687911,-1.22651 c 0.69567,-1.24034 1.728193,-1.93687 2.871571,-1.97391 z m 34.205085,5.53085 24.874575,22.94708 c 23.5703,21.74325 24.87547,23.02897 24.87547,24.51557 0,2.1555 -1.92144,3.65657 -4.04565,3.16012 -0.52358,-0.12241 -12.14008,-10.51857 -25.81441,-23.10221 l -24.862481,-22.87937 2.485785,-2.32102 z m -40.480894,0.21684 c 1.040994,-0.0365 2.721538,1.37395 10.895053,8.92497 9.107143,8.41356 9.87998,9.24698 9.583376,10.33661 -0.364658,1.33953 -1.867951,2.48128 -3.26759,2.48128 -0.58441,0 -4.584922,-3.34702 -10.603156,-8.87182 -6.647188,-6.10217 -9.665178,-9.17039 -9.665178,-9.82576 0,-1.25576 1.370445,-2.70513 2.855769,-3.02041 0.06545,-0.0133 0.132327,-0.0224 0.201726,-0.0249 z m 16.932886,38.8154 c -10.93196,0 -21.864289,0.19011 -22.275369,0.56911 -0.314125,0.28964 -0.570781,1.40703 -0.570781,2.48386 0,1.71516 -0.344621,2.37101 -2.783262,5.28831 -3.690496,4.41487 -3.8802,4.80182 -3.8802,7.93757 0,4.8573 -3.144859,4.38835 29.431526,4.38835 21.489861,0 28.58543,-0.12837 29.016916,-0.52626 0.344976,-0.31807 0.570783,-1.85988 0.570783,-3.8938 v -3.36752 l -3.33173,-3.96923 c -2.963075,-3.53005 -3.331732,-4.18161 -3.331732,-5.8917 0,-1.05756 -0.256637,-2.15994 -0.570781,-2.44958 -0.411079,-0.379 -11.343409,-0.56911 -22.27537,-0.56911 z m 10.610596,2.74185 c 8.028766,0.003 9.379786,0.15011 9.379786,0.58712 0,0.58102 -2.478541,0.66254 -20.030358,0.66254 -15.812448,0 -19.987884,-0.11544 -19.831416,-0.54855 0.153447,-0.42465 4.677312,-0.57389 20.030355,-0.66254 4.357452,-0.0252 7.775378,-0.0398 10.451633,-0.0386 z m -30.9626,3.88265 20.52863,0.0171 20.527699,0.0171 1.665866,2.04674 c 0.916221,1.12565 1.837668,2.30278 2.047006,2.61588 0.310023,0.46362 -4.226292,0.56911 -24.451594,0.56911 -19.787752,0 -24.740674,-0.11146 -24.382798,-0.54855 0.24699,-0.30169 1.262516,-1.48653 2.257101,-2.633 z m -5.825878,7.89217 26.296872,0.11312 26.296873,0.11312 0.157098,1.01995 c 0.366996,2.38819 1.725137,2.27131 -26.558093,2.27131 H 30.932048 v -1.75877 z"
       id="rect907"
       inkscape:connector-curvature="0" />
    <path
       style="fill:url(#linearGradient899);fill-opacity:1;stroke:none;stroke-width:0.26458332px;stroke-linecap:butt;stroke-linejoin:miter;stroke-opacity:1;opacity:0.236"
       d="m 80.221949,98.44025 71.523691,32.6161 0.66348,79.18031 -118.638719,-13.18008 c -12.072603,-0.17166 -0.564283,-13.24493 1.929044,-19.90194 15.804383,-42.19661 17.679291,-50.40258 44.522504,-78.71439 z"
       id="path974"
       inkscape:connector-curvature="0"
       sodipodi:nodetypes="ccccsc" />
    <path
       style="opacity:1;fill:#502d16;fill-opacity:1;fill-rule:nonzero;stroke:none;stroke-width:0.66499996;stroke-linecap:butt;stroke-linejoin:miter;stroke-miterlimit:4;stroke-dasharray:none;stroke-dashoffset:0;stroke-opacity:1;paint-order:stroke fill markers"
       d="m 54.450867,157.31828 c -4.725616,-3.86011 -16.950964,-15.51292 -17.187769,-16.38285 -0.261532,-0.96071 0.558917,-2.18245 1.95674,-2.91377 0.791209,-0.41395 0.98118,-0.40124 2.067762,0.13833 1.300884,0.64592 16.893377,14.8533 18.433155,16.7957 0.519841,0.65577 0.945171,1.46057 0.945171,1.78844 0,0.79386 -2.073812,2.67501 -2.948978,2.67501 -0.387708,0 -1.829734,-0.92755 -3.266081,-2.10081 z"
       id="path950"
       inkscape:connector-curvature="0" />
    <path
       style="opacity:1;fill:#502d16;fill-opacity:1;fill-rule:nonzero;stroke:none;stroke-width:0.66499996;stroke-linecap:butt;stroke-linejoin:miter;stroke-miterlimit:4;stroke-dasharray:none;stroke-dashoffset:0;stroke-opacity:1;paint-order:stroke fill markers"
       d="m 53.034692,144.5097 c -11.035654,-9.99036 -10.719339,-9.57892 -8.818334,-11.47015 1.042042,-1.03666 2.328694,-1.33339 3.433757,-0.79187 1.145321,0.56123 12.322205,10.61077 16.219392,14.58343 2.186344,2.22867 3.096474,3.38334 3.096474,3.92845 0,1.01133 -1.978725,2.85091 -3.066521,2.85091 -0.617979,0 -3.211602,-2.17252 -10.864768,-9.10077 z"
       id="path952"
       inkscape:connector-curvature="0" />
    <path
       style="opacity:1;fill:#502d16;fill-opacity:1;fill-rule:nonzero;stroke:none;stroke-width:0.66499996;stroke-linecap:butt;stroke-linejoin:miter;stroke-miterlimit:4;stroke-dasharray:none;stroke-dashoffset:0;stroke-opacity:1;paint-order:stroke fill markers"
       d="m 91.588772,118.49804 c -2.87389,-2.51917 -7.51963,-6.70869 -10.323862,-9.31006 l -5.09861,-4.72976 0.759455,-1.24587 c 0.923922,-1.51567 2.675033,-2.40803 3.798882,-1.93591 0.980513,0.4119 11.933554,10.27043 16.301015,14.67208 1.906625,1.92156 3.430098,3.72269 3.430098,4.05523 0,0.73695 -1.887621,2.61141 -2.898503,2.87834 -0.624255,0.16487 -1.579606,-0.53689 -5.968475,-4.38405 z"
       id="path954"
       inkscape:connector-curvature="0" />
    <path
       style="opacity:1;fill:#502d16;fill-opacity:1;fill-rule:nonzero;stroke:none;stroke-width:0.66499996;stroke-linecap:butt;stroke-linejoin:miter;stroke-miterlimit:4;stroke-dasharray:none;stroke-dashoffset:0;stroke-opacity:1;paint-order:stroke fill markers"
       d="m 88.160293,126.91055 c -1.352969,-1.0699 -5.854508,-5.12876 -10.003425,-9.01963 -8.184964,-7.67594 -8.34155,-7.89722 -6.836783,-9.66099 1.085082,-1.27185 2.142521,-1.52228 3.390484,-0.80295 1.278575,0.73698 17.456325,15.64437 18.627913,17.16516 0.956826,1.24204 0.811661,2.08318 -0.556832,3.22655 -1.526213,1.27515 -1.97101,1.18775 -4.621357,-0.90814 z"
       id="path956"
       inkscape:connector-curvature="0" />
    <path
       style="opacity:1;fill:#502d16;fill-opacity:1;fill-rule:nonzero;stroke:none;stroke-width:0.66499996;stroke-linecap:butt;stroke-linejoin:miter;stroke-miterlimit:4;stroke-dasharray:none;stroke-dashoffset:0;stroke-opacity:1;paint-order:stroke fill markers"
       d="m 120.74405,183.28444 c -3.0431,-2.67962 -14.46201,-13.03195 -25.375363,-23.00519 l -19.842459,-18.13315 2.624428,-2.38479 2.624424,-2.38479 22.60439,20.96567 c 12.43241,11.53114 23.57509,22.0146 24.76151,23.29661 1.85919,2.00899 2.15713,2.49664 2.15713,3.53067 0,1.55523 -1.42833,2.98701 -2.97981,2.98701 -0.89238,0 -1.83281,-0.69693 -6.57425,-4.87204 z"
       id="path958"
       inkscape:connector-curvature="0" />
    <path
       style="opacity:1;fill:#502d16;fill-opacity:1;fill-rule:nonzero;stroke:none;stroke-width:0.66499996;stroke-linecap:butt;stroke-linejoin:miter;stroke-miterlimit:4;stroke-dasharray:none;stroke-dashoffset:0;stroke-opacity:1;paint-order:stroke fill markers"
       d="m 35.548595,188.2487 c -1.504552,-0.0644 -2.735084,-0.21457 -2.734518,-0.33388 4.76e-4,-0.11926 0.921305,-1.30418 2.046082,-2.63307 l 2.04504,-2.41615 6.65795,0.1989 c 3.661871,0.10946 12.882569,0.19926 20.490442,0.19971 l 13.832497,8.6e-4 1.818587,2.21607 c 1.213592,1.47885 1.708183,2.31789 1.486722,2.52216 -0.32272,0.29767 -39.494636,0.50834 -45.642802,0.24549 z"
       id="path960"
       inkscape:connector-curvature="0" />
    <path
       style="opacity:1;fill:#502d16;fill-opacity:1;fill-rule:nonzero;stroke:none;stroke-width:0.66499996;stroke-linecap:butt;stroke-linejoin:miter;stroke-miterlimit:4;stroke-dasharray:none;stroke-dashoffset:0;stroke-opacity:1;paint-order:stroke fill markers"
       d="m 30.823554,192.77493 v -1.83908 l 26.277861,0.18083 c 14.452828,0.0995 26.301861,0.19636 26.33119,0.21534 0.02932,0.0189 0.157387,0.54813 0.284568,1.1759 0.212935,1.05105 0.156199,1.17161 -0.716484,1.52262 -0.7225,0.29058 -7.035247,0.40521 -26.562434,0.4823 l -25.614701,0.10121 z"
       id="path962"
       inkscape:connector-curvature="0" />
    <path
       style="opacity:1;fill:#917c6f;fill-opacity:1;fill-rule:nonzero;stroke:none;stroke-width:0.66499996;stroke-linecap:butt;stroke-linejoin:miter;stroke-miterlimit:4;stroke-dasharray:none;stroke-dashoffset:0;stroke-opacity:1;paint-order:stroke fill markers"
       d="m 39.939582,180.20415 c -0.126355,-0.1885 -0.127866,-0.43674 -0.0034,-0.55166 0.366253,-0.3381 36.080818,-0.41502 36.636041,-0.079 0.268277,0.16238 0.367875,0.40594 0.221333,0.5412 -0.43998,0.40607 -36.582948,0.49371 -36.853999,0.0894 z"
       id="path964"
       inkscape:connector-curvature="0" />
    <path
       style="opacity:1;fill:#917c6f;fill-opacity:1;fill-rule:nonzero;stroke:none;stroke-width:0.66499996;stroke-linecap:butt;stroke-linejoin:miter;stroke-miterlimit:4;stroke-dasharray:none;stroke-dashoffset:0;stroke-opacity:1;paint-order:stroke fill markers"
       d="m 59.504407,138.62945 -7.621952,-7.03238 9.199598,-8.482 9.199599,-8.48198 7.707777,7.10654 7.707773,7.10653 -9.114663,8.40782 c -5.013065,4.62433 -9.191507,8.40786 -9.285419,8.40786 -0.09392,0 -3.60064,-3.16458 -7.792713,-7.03239 z m 4.154792,-11.497 c 7.556198,-6.87192 8.715235,-8.37369 6.462677,-8.37369 -1.059724,0 -2.07754,0.79775 -8.544104,6.69679 -3.610268,3.29342 -5.553995,5.28708 -5.553995,5.69665 0,0.72568 0.587594,1.36382 1.255791,1.36382 0.252993,0 3.12383,-2.42262 6.379631,-5.38357 z"
       id="path966"
       inkscape:connector-curvature="0" />
    <path
       style="opacity:1;fill:#ffffff;fill-opacity:1;fill-rule:nonzero;stroke:none;stroke-width:0.66499996;stroke-linecap:butt;stroke-linejoin:miter;stroke-miterlimit:4;stroke-dasharray:none;stroke-dashoffset:0;stroke-opacity:1;paint-order:stroke fill markers"
       d="m 124.99281,190.30951 c -2.2342,-1.09999 -8.29562,-6.42042 -29.862124,-26.21161 l -21.738354,-19.94892 -1.679184,1.59714 c -2.242882,2.13331 -2.38235,2.42622 -2.001285,4.20313 0.275139,1.28298 0.217424,1.67372 -0.429042,2.90499 -0.453291,0.86334 -1.283659,1.76545 -2.112159,2.29467 -2.612448,1.66875 -3.221046,2.20584 -4.36046,3.84809 -1.791314,2.58184 -4.082116,3.53418 -6.864406,2.85367 -1.228438,-0.30043 -2.686821,-1.51966 -11.105942,-9.28464 -10.332217,-9.52945 -10.929438,-10.23948 -10.554067,-12.5474 0.297025,-1.82618 1.266111,-3.08545 3.295629,-4.28245 1.779482,-1.04952 2.365691,-1.61381 4.164915,-4.0092 1.284977,-1.71073 2.968412,-2.4284 5.610254,-2.39168 l 2.109218,0.0294 3.693468,-3.13337 c 2.031402,-1.72335 6.155456,-5.41822 9.164561,-8.21083 l 5.4711,-5.07746 v -2.57225 c 0,-2.99434 0.396083,-3.69847 2.961857,-5.26547 2.049134,-1.25145 3.503991,-2.5459 3.503991,-3.11765 0,-0.86625 2.857054,-3.040516 4.375133,-3.329553 3.005962,-0.572323 4.053712,0.09147 13.149251,8.330633 7.646654,6.92669 10.775306,10.23459 11.282796,11.92923 0.62581,2.08967 -0.75161,4.49296 -3.555548,6.20369 -1.166995,0.71201 -2.364076,1.81113 -3.196696,2.93509 -2.250859,3.03848 -2.349673,3.07635 -8.412524,3.22541 -0.2474,0.006 -1.553833,0.99806 -2.903184,2.2044 l -2.453367,2.19333 23.309249,21.57615 c 12.82007,11.86687 24.23561,22.57708 25.36785,23.80044 1.95802,2.11561 2.05826,2.30235 2.05133,3.82147 -0.008,1.71504 -0.8243,3.71453 -1.86462,4.56624 -1.77122,1.45011 -4.4864,1.81624 -6.41764,0.86541 z m 4.44688,-3.09366 c 1.31114,-1.43665 1.17705,-2.91285 -0.43547,-4.7937 -1.42736,-1.66491 -47.589824,-44.79948 -48.12167,-44.96529 -0.45297,-0.14114 -5.341887,4.26547 -5.223943,4.70866 0.11495,0.4319 42.897333,39.47822 47.420863,43.27972 2.74461,2.30652 3.39603,2.71124 4.36398,2.71124 0.86348,0 1.34478,-0.22678 1.99624,-0.94063 z M 59.572498,158.44197 c 1.538466,-1.37482 1.444288,-2.25451 -0.456455,-4.26343 -2.549084,-2.69414 -8.259942,-8.00637 -13.295252,-12.36726 -5.405237,-4.68124 -5.898725,-4.87543 -7.668087,-3.01744 -0.565998,0.59437 -1.029095,1.39723 -1.029095,1.78417 0,1.16625 14.678271,15.17503 19.020781,18.15322 1.358437,0.93166 2.135221,0.86611 3.428108,-0.28926 z m 6.364386,-5.91214 c 1.216881,-1.27785 1.283854,-2.00089 0.306134,-3.30505 -0.962184,-1.28345 -14.507873,-13.93106 -16.950988,-15.82714 -2.399242,-1.86204 -3.44369,-1.95544 -5.072568,-0.45363 -0.644424,0.59416 -1.127377,1.34815 -1.127377,1.76008 0,0.53614 2.18612,2.72086 8.538229,8.5328 12.689111,11.61003 12.325148,11.37361 14.30657,9.29294 z m 10.64565,-15.27585 9.114668,-8.40782 -7.707773,-7.10653 -7.707777,-7.10654 -9.199599,8.48198 -9.199598,8.482 7.621952,7.03238 c 4.192073,3.86781 7.698796,7.03239 7.792713,7.03239 0.09392,0 4.272354,-3.78353 9.285414,-8.40786 z m 15.754203,-9.02071 c 1.539781,-0.87739 2.026329,-2.10365 1.328412,-3.34801 -0.707564,-1.26153 -17.717715,-16.9448 -19.085994,-17.59718 -1.2559,-0.59879 -2.621348,-0.22557 -3.452239,0.94361 -1.15465,1.62475 -0.822871,2.18441 4.211503,7.10409 4.597478,4.49271 12.373803,11.47116 14.302738,12.83519 1.17193,0.82873 1.343585,0.83269 2.69558,0.0624 z m 6.831693,-6.38138 c 0.708026,-0.6528 1.28732,-1.45724 1.28732,-1.78765 0,-0.91394 -3.445434,-4.42265 -11.864099,-12.082 -5.577321,-5.07428 -7.853702,-6.95475 -8.417959,-6.95392 -1.17584,0.002 -2.690878,0.9934 -3.417022,2.23659 l -0.651439,1.11529 1.315953,1.29009 c 2.168085,2.12549 15.770693,14.40713 17.657427,15.9427 0.963529,0.78419 1.988263,1.42581 2.277186,1.42581 0.288922,0 1.104607,-0.53412 1.812633,-1.18691 z"
       id="path970"
       inkscape:connector-curvature="0" />
    <path
       style="opacity:1;fill:#ffffff;fill-opacity:1;fill-rule:nonzero;stroke:none;stroke-width:0.66499996;stroke-linecap:butt;stroke-linejoin:miter;stroke-miterlimit:4;stroke-dasharray:none;stroke-dashoffset:0;stroke-opacity:1;paint-order:stroke fill markers"
       d="m 33.770636,197.05659 c -5.974145,-0.28386 -6.263592,-0.44478 -6.26105,-3.48069 0.0029,-3.59471 0.29157,-4.19757 4.594433,-9.59837 1.516713,-1.90372 1.788334,-2.46601 2.066724,-4.27847 0.176276,-1.14769 0.545095,-2.29376 0.819578,-2.54683 0.434214,-0.40035 3.323277,-0.46013 22.232566,-0.46013 21.131091,0 21.746541,0.0166 22.20414,0.59342 0.258856,0.32639 0.470645,1.12185 0.470645,1.7677 0,1.76965 0.754256,3.11623 3.829843,6.83739 l 2.801797,3.38992 -0.0046,3.03013 c -0.006,3.91521 -0.130457,4.30725 -1.435215,4.51559 -1.669412,0.26655 -46.337315,0.46704 -51.318933,0.23034 z m 49.55791,-3.05251 c 0.573299,-0.43886 0.724598,-1.75518 0.276524,-2.4057 -0.202616,-0.29413 -6.169936,-0.42582 -26.521475,-0.58526 l -26.260041,-0.20573 v 1.90601 1.90602 l 25.978443,-0.0978 c 21.414927,-0.0806 26.074723,-0.17159 26.526549,-0.51746 z m -2.144598,-6.00046 c 0.305544,-0.288 -0.509096,-1.5906 -2.446812,-3.91241 l -0.663168,-0.7946 -18.734371,-0.17724 c -10.303909,-0.0975 -19.557107,-0.24533 -20.562665,-0.32854 l -1.828287,-0.15126 -1.904751,2.28147 c -2.491263,2.98398 -2.553433,3.15948 -1.179861,3.33067 2.331744,0.29061 46.996827,0.0564 47.319915,-0.24808 z m -5.501452,-7.68816 c 0.704431,-0.10731 1.201755,-0.34079 1.132559,-0.53164 -0.157476,-0.43436 -37.864526,-0.48547 -38.862489,-0.0528 -0.557716,0.24186 -0.425905,0.31962 0.828953,0.48908 1.930839,0.26075 35.250413,0.34673 36.900977,0.0952 z"
       id="path972"
       inkscape:connector-curvature="0" />
    <path
       style="opacity:1;fill:#ffffff;fill-opacity:1;fill-rule:nonzero;stroke:none;stroke-width:2.51338577;stroke-linecap:butt;stroke-linejoin:miter;stroke-miterlimit:4;stroke-dasharray:none;stroke-dashoffset:0;stroke-opacity:1;paint-order:stroke fill markers"
       d="M 473.09169,390.57623 C 465.83265,387.6361 446.25024,370.3745 351.43476,283.33745 317.56762,252.24868 286.92345,224.20911 283.33664,221.02727 l -6.52149,-5.78513 -7.34752,7.70233 c -6.92937,7.264 -7.30111,8.04833 -6.53207,13.78191 1.17389,8.75198 -1.85406,14.55404 -11.19762,21.45652 -4.44573,3.28427 -10.85016,9.2529 -14.23206,13.26362 -10.68366,12.6702 -22.54038,15.43668 -33.16706,7.73875 -7.33533,-5.31369 -36.21962,-31.55151 -57.44651,-52.18311 -12.81254,-12.45321 -16.70018,-17.14742 -17.43205,-21.04862 -1.46735,-7.82161 2.84744,-15.64579 11.96594,-21.6983 4.22885,-2.80695 10.48692,-8.44557 13.90681,-12.53026 7.89444,-9.42903 12.40608,-11.71488 23.12196,-11.71488 h 8.61154 l 14.58525,-12.77902 c 8.02188,-7.02846 23.50445,-20.98722 34.40571,-31.01948 L 255.87793,97.971144 V 88.92179 c 0,-11.17966 2.36406,-15.137552 13.17082,-22.050557 4.40959,-2.820777 9.64955,-7.714114 11.64434,-10.874083 5.98346,-9.478405 16.8228,-14.558777 25.65674,-12.025238 12.17058,3.490475 80.89275,67.666838 83.06871,77.573908 1.3483,6.13875 -2.56465,14.09396 -9.31873,18.94544 -2.91449,2.09349 -9.92384,8.57432 -15.57635,14.40184 l -10.27728,10.59548 -11.90715,1.0142 c -11.57301,0.98574 -12.14981,1.21916 -20.55456,8.31799 -4.75607,4.01709 -8.84774,7.88416 -9.09259,8.59349 -0.24485,0.70933 21.22733,21.30906 47.71594,45.7772 90.51803,83.61351 108.3689,100.25903 125.60777,117.12638 17.04251,16.67523 17.25115,16.96049 17.25115,23.5872 0,8.53092 -3.97477,15.96656 -10.36781,19.39518 -5.19353,2.78531 -14.5868,3.39044 -19.80724,1.27601 z m 15.60616,-11.69396 c 6.52542,-6.52541 5.7265,-10.56346 -4.15044,-20.97766 -4.64313,-4.89572 -38.17275,-36.75806 -74.51028,-70.80522 -93.33605,-87.45306 -102.93152,-96.25745 -104.90605,-96.25745 -1.90977,0 -19.1554,15.91488 -19.1554,17.67727 0,1.43308 133.35837,123.49515 172.56381,157.94656 11.93082,10.48409 20.78044,16.70812 23.75642,16.70812 1.16068,0 4.04155,-1.93122 6.40194,-4.29162 z M 226.37104,268.55811 c 3.54271,-4.21028 3.64966,-4.77005 1.65015,-8.63669 -3.49929,-6.76688 -63.98585,-62.39654 -72.65789,-66.82367 -2.30821,-1.17834 -4.92374,-1.45096 -6.87266,-0.71631 -3.67106,1.38381 -7.86506,6.88039 -7.86506,10.30781 0,3.62783 50.60347,52.32588 69.0046,66.4063 6.90224,5.28155 11.9817,5.11848 16.74086,-0.53744 z m 23.04511,-20.61232 c 4.68943,-5.02004 5.0141,-6.50583 2.37226,-10.8561 -2.92834,-4.82204 -50.44652,-49.47319 -66.86294,-62.82875 -6.41136,-5.21595 -12.73437,-5.22584 -18.1593,-0.0284 -2.26482,2.16982 -4.11784,4.66043 -4.11784,5.53468 0,2.00612 21.62152,23.33268 45.51366,44.89277 22.62831,20.4196 31.90342,27.84564 34.77918,27.84564 1.21851,0 4.13226,-2.05191 6.47498,-4.55982 z m 39.04371,-56.59143 c 17.68324,-16.27192 32.93004,-30.52357 33.88177,-31.67034 1.4153,-1.70533 -1.93699,-5.40819 -18.4079,-20.33291 -11.07609,-10.03632 -24.17626,-22.05904 -29.11148,-26.71715 l -8.97315,-8.46928 -34.34924,31.60283 c -18.89208,17.38155 -34.46425,32.09399 -34.60481,32.6943 -0.35668,1.52326 56.80651,53.45962 58.24395,52.9183 0.64323,-0.24224 15.63762,-13.75382 33.32086,-30.02575 z M 350.54145,154.675 c 8.5146,-7.16457 6.96046,-9.8239 -21.11807,-36.13561 C 302.79787,93.589238 283.944,77.423488 279.62955,75.844966 c -4.87736,-1.784469 -12.59923,4.229386 -12.69355,9.885841 -0.10236,6.138639 70.51413,72.811103 77.11825,72.811103 1.0404,0 3.95964,-1.74011 6.4872,-3.86691 z m 24.2082,-22.71247 c 2.85435,-2.50615 5.18973,-5.54964 5.18973,-6.7633 0,-2.75795 -15.80277,-19.22558 -39.33201,-40.986795 C 315.59228,61.077031 305.41671,52.83275 301.87675,52.83275 c -1.66809,0 -5.7058,2.672925 -8.97271,5.939834 l -5.93983,5.939835 6.47961,6.677322 c 7.29816,7.52086 53.96722,49.828779 65.18,59.089039 4.0227,3.32221 8.12898,6.04039 9.12505,6.04039 0.99609,0 4.14644,-2.05049 7.00078,-4.55664 z"
       id="path861"
       inkscape:connector-curvature="0"
       transform="matrix(0.26458333,0,0,0.26458333,0,87)" />
    <path
       style="opacity:1;fill:#ffffff;fill-opacity:1;fill-rule:nonzero;stroke:none;stroke-width:2.51338577;stroke-linecap:butt;stroke-linejoin:miter;stroke-miterlimit:4;stroke-dasharray:none;stroke-dashoffset:0;stroke-opacity:1;paint-order:stroke fill markers"
       d="m 467.27666,387.01044 c -4.02672,-2.7349 -17.21722,-13.80133 -29.3122,-24.59206 C 416.5248,343.29064 295.95623,233.13294 283.29308,221.10256 l -6.35308,-6.03561 -7.33521,7.92738 c -7.09848,7.67152 -7.30662,8.14538 -6.44903,14.68183 1.12806,8.59787 -1.95759,13.90164 -12.70825,21.84362 -4.29735,3.17463 -10.25557,8.75247 -13.24051,12.3952 -9.05588,11.05149 -21.75066,14.57569 -31.24728,8.67453 -6.09862,-3.78965 -34.45897,-29.44343 -56.94183,-51.50758 -15.56136,-15.27154 -18.9135,-19.32741 -19.61413,-23.73172 -1.27121,-7.9912 2.70219,-14.76437 13.18846,-22.48143 4.9746,-3.66091 10.93138,-9.03254 13.23728,-11.93695 6.47446,-8.15493 12.08089,-10.90898 22.23475,-10.92239 l 8.80909,-0.0116 17.6182,-15.62144 c 9.69,-8.59182 25.05087,-22.53079 34.13525,-30.97552 l 16.51705,-15.354057 v -7.238274 c 0,-10.56617 3.01296,-16.300588 12.08647,-23.003582 4.37505,-3.232037 10.73607,-9.198558 14.13562,-13.258936 3.99764,-4.774747 8.41904,-8.237227 12.51687,-9.802204 9.69638,-3.703082 15.17739,-1.467729 33.03498,13.472858 21.99577,18.402805 58.16433,53.978235 61.04067,60.039675 3.62402,7.63707 1.82177,13.147 -6.90466,21.10914 -4.03684,3.68327 -11.71997,11.08792 -17.07366,16.45478 l -9.73395,9.75792 -10.27728,0.94445 c -12.35311,1.13521 -17.51454,3.50629 -25.62767,11.77296 l -6.14141,6.25765 7.96228,7.18184 c 25.91716,23.37684 145.97345,135.12649 162.91713,151.64498 20.17886,19.67251 20.18751,19.68383 20.18751,26.45686 0,13.34985 -8.74589,22.14604 -22.01944,22.14604 -5.13701,0 -8.31446,-1.13094 -13.97064,-4.97254 z m 22.40939,-9.17572 c 4.0089,-4.4097 4.1336,-7.22921 0.57763,-13.06035 -2.76519,-4.53441 -42.899,-42.8844 -120.60536,-115.24488 -60.96348,-56.76943 -63.07519,-58.68755 -64.61091,-58.68755 -0.75647,0 -5.52223,3.97234 -10.59061,8.82743 l -9.21521,8.82743 6.04731,5.48735 c 3.32604,3.01804 28.43197,26.04269 55.79095,51.16588 72.32376,66.4134 114.61713,104.3599 124.46068,111.66874 9.54298,7.08565 12.4781,7.24999 18.14552,1.01595 z M 224.8481,270.01725 c 8.12963,-6.39478 5.737,-10.06423 -25.09718,-38.49035 -32.64289,-30.0936 -43.86548,-39.21678 -48.24125,-39.21678 -4.24878,0 -10.88409,5.98785 -10.88409,9.82205 0,4.32942 58.47625,60.33357 71.20687,68.19658 5.66079,3.49636 8.25362,3.4343 13.01565,-0.3115 z m 24.27092,-22.70137 c 2.50615,-2.85434 4.55664,-5.89166 4.55664,-6.74957 0,-2.31989 -17.15649,-19.71326 -40.44567,-41.0041 -26.65127,-24.36446 -32.88857,-29.24323 -37.40839,-29.26058 -4.29313,-0.0165 -9.5437,3.28807 -11.73752,7.38725 -1.98624,3.71133 3.1045,9.27238 36.00291,39.3291 26.6699,24.36621 40.07795,35.48523 42.79225,35.48671 0.92573,5.1e-4 3.73363,-2.33446 6.23978,-5.18881 z m 41.80409,-58.48365 c 17.46642,-16.03938 31.75714,-29.59797 31.75714,-30.1302 0,-2.22571 -54.55408,-53.0147 -56.94478,-53.0147 -0.81129,0 -16.24443,13.629 -34.29587,30.28666 -18.05144,16.65766 -33.37652,30.7904 -34.05573,31.40609 -0.67922,0.61569 11.79352,13.06161 27.71719,27.6576 25.28269,23.17469 29.27612,26.31123 31.50851,24.74761 1.40601,-0.98481 16.84711,-14.91369 34.31354,-30.95306 z m 59.14699,-34.03549 c 9.28292,-7.08043 7.29713,-10.24166 -25.49599,-40.58765 -31.37743,-29.03594 -42.37167,-37.885415 -47.06735,-37.885415 -4.52994,0 -10.61745,5.242992 -10.61745,9.144497 0,5.902342 70.64371,72.980348 76.94101,73.057458 0.73128,0.009 3.53917,-1.66905 6.23978,-3.72889 z m 24.62611,-23.22252 c 2.88375,-2.71973 5.24317,-5.69081 5.24317,-6.6024 0,-3.69619 -49.9686,-51.981823 -69.7104,-67.362524 -6.6886,-5.211038 -6.8038,-5.239951 -11.65689,-2.925676 -2.69583,1.285556 -6.30642,4.310379 -8.02353,6.72183 l -3.122,4.384455 17.25979,16.113077 c 35.2488,32.906878 60.53832,54.616188 63.62332,54.616188 0.62884,0 3.50279,-2.22523 6.38654,-4.94495 z"
       id="path863"
       inkscape:connector-curvature="0"
       transform="matrix(0.26458333,0,0,0.26458333,0,87)" />
    <path
       style="opacity:1;fill:#ffffff;fill-opacity:1;fill-rule:nonzero;stroke:none;stroke-width:2.51338577;stroke-linecap:butt;stroke-linejoin:miter;stroke-miterlimit:4;stroke-dasharray:none;stroke-dashoffset:0;stroke-opacity:1;paint-order:stroke fill markers"
       d="m 213.0209,169.35372 c -0.50692,-1.321 -0.26103,-3.46822 0.54642,-4.77159 1.95443,-3.1548 36.36748,-34.72892 43.63204,-40.03259 5.83857,-4.26259 11.15813,-5.48101 11.15813,-2.55572 0,3.83729 -48.84349,49.76174 -52.92468,49.76174 -0.81963,0 -1.90499,-1.08083 -2.41191,-2.40184 z"
       id="path865"
       inkscape:connector-curvature="0"
       transform="matrix(0.26458333,0,0,0.26458333,0,87)" />
    <path
       style="opacity:1;fill:#ffffff;fill-opacity:1;fill-rule:nonzero;stroke:none;stroke-width:2.51338577;stroke-linecap:butt;stroke-linejoin:miter;stroke-miterlimit:4;stroke-dasharray:none;stroke-dashoffset:0;stroke-opacity:1;paint-order:stroke fill markers"
       d="m 213.72617,170.53848 c -1.95851,-1.9585 -1.78302,-4.21612 0.55918,-7.19375 2.55702,-3.25071 35.86735,-33.79352 42.09849,-38.60081 5.83963,-4.50524 12.08199,-5.90134 12.08199,-2.70212 0,1.21179 -2.83451,4.90705 -7.47332,9.74274 -12.08166,12.59443 -43.00896,40.17743 -45.04873,40.17743 -0.43677,0 -1.43469,-0.64057 -2.21761,-1.42349 z"
       id="path867"
       inkscape:connector-curvature="0"
       transform="matrix(0.26458333,0,0,0.26458333,0,87)" />
    <path
       style="opacity:1;fill:#ffffff;fill-opacity:1;fill-rule:nonzero;stroke:none;stroke-width:2.51338577;stroke-linecap:butt;stroke-linejoin:miter;stroke-miterlimit:4;stroke-dasharray:none;stroke-dashoffset:0;stroke-opacity:1;paint-order:stroke fill markers"
       d="m 471.40812,389.75082 c -10.53165,-6.01966 -42.40938,-34.50491 -172.59607,-154.22819 -11.4591,-10.5381 -21.32181,-19.16321 -21.91714,-19.16692 -0.59533,-0.004 -3.96301,3.26225 -7.48372,7.25768 l -6.4013,7.26441 0.23686,7.51068 c 0.21771,6.90333 0.0328,7.82 -2.28702,11.33577 -1.38814,2.10381 -4.85305,5.544 -7.69979,7.64488 -2.84674,2.10088 -9.65989,8.32851 -15.14033,13.83916 -7.68253,7.7249 -10.81828,10.2661 -13.69296,11.09676 -5.72149,1.65325 -12.58605,1.34058 -16.70525,-0.76087 -6.07828,-3.1009 -33.81374,-27.89824 -62.65042,-56.01362 -15.61912,-15.22843 -17.98655,-19.67573 -15.06276,-28.29588 1.7,-5.01206 4.08146,-7.73487 12.91836,-14.77 4.60618,-3.66702 10.54355,-9.16069 13.19416,-12.20816 6.81911,-7.84009 12.43384,-10.45563 23.01928,-10.72315 5.16486,-0.13054 8.57672,-0.64185 9.5115,-1.42541 7.94838,-6.66266 38.14685,-33.84984 56.94141,-51.26342 l 9.28504,-8.602794 v -5.13861 c 0,-7.242036 1.51031,-14.345409 3.74285,-17.603589 1.04864,-1.530381 4.31796,-4.604819 7.26518,-6.832085 2.94722,-2.227267 9.21665,-7.977242 13.93206,-12.777723 9.69256,-9.867418 13.03402,-11.848373 20.88035,-12.37877 5.49568,-0.371497 10.66805,1.296073 14.09809,4.545218 0.67476,0.639169 4.0946,3.452829 7.59965,6.252577 19.54365,15.61101 59.70823,54.073316 64.63319,61.893876 5.02486,7.97921 3.01307,16.3072 -5.65469,23.40813 -2.56238,2.09918 -9.66448,8.77645 -15.78245,14.83836 -12.16356,12.05212 -10.95849,11.43836 -24.65779,12.55847 -8.69715,0.71111 -13.99589,3.28354 -22.15991,10.75819 -5.76878,5.28167 -6.19425,5.9128 -4.98222,7.39065 0.72886,0.88871 25.98716,24.45638 56.12956,52.37261 119.8736,111.02031 132.50288,123.13465 133.59026,128.14346 1.2506,5.76064 -0.9599,14.33061 -5.03127,19.50588 -5.32509,6.76896 -19.1459,9.10321 -27.07271,4.57243 z m 17.2876,-11.14681 c 3.91205,-3.91207 4.63952,-8.04472 2.2192,-12.6071 -2.58692,-4.87645 -34.4132,-35.43068 -119.63429,-114.85274 -53.50792,-49.86686 -64.80623,-60.15919 -66.03919,-60.15919 -1.25265,0 -16.20049,13.1513 -18.19409,16.00741 -1.30039,1.86299 -1.16393,2.14943 2.58957,5.43514 2.17926,1.90769 20.82916,18.96684 41.44422,37.90924 56.40128,51.82501 106.16701,96.98695 126.70213,114.981 20.96292,18.3689 24.36679,19.8319 30.91245,13.28624 z m -263.16488,-109.416 c 4.26864,-4.26864 4.09435,-7.13648 -0.79852,-13.13868 -6.29068,-7.71695 -47.34187,-45.55114 -62.45739,-57.56289 -7.84329,-6.23277 -10.46929,-7.21162 -14.18803,-5.28857 -3.34959,1.73213 -7.34695,6.48556 -7.34695,8.73657 0,4.76675 62.02481,63.78277 72.64141,69.11761 5.26576,2.64605 8.06957,2.21587 12.14948,-1.86404 z m 22.91223,-21.25326 c 4.5718,-4.57181 5.37277,-7.19981 3.20972,-10.53119 -3.18339,-4.90283 -40.75473,-40.61358 -60.17564,-57.19564 -10.25943,-8.75976 -13.4328,-10.46004 -17.94318,-9.61389 -3.53342,0.66288 -10.14759,6.46937 -10.14759,8.90844 0,2.91833 13.64828,16.62111 42.61579,42.78597 26.16525,23.63373 33.34753,29.38897 36.67607,29.38897 1.16211,0 3.61395,-1.5918 5.76483,-3.74266 z m 24.67889,-43.08305 c 41.99085,-38.17639 49.71905,-45.64858 48.84649,-47.22841 -1.11084,-2.01126 -10.50814,-11.04643 -30.85619,-29.66712 -21.86269,-20.00676 -24.28868,-22.12178 -25.37433,-22.12178 -0.50103,0 -4.67759,3.363 -9.28122,7.47332 -16.15985,14.42822 -58.19836,53.45302 -58.52863,54.33278 -0.46608,1.24154 9.12096,10.79936 29.77417,29.68341 20.20266,18.47209 25.21374,22.62736 27.30257,22.63971 0.8171,0.005 8.96981,-6.79552 18.11714,-15.11191 z m 72.63506,-47.32276 c 1.22264,-0.46485 3.69499,-2.13762 5.49412,-3.71727 6.33489,-5.56211 4.52972,-9.52293 -11.35204,-24.90793 -29.62858,-28.70183 -55.82695,-51.288305 -60.99435,-52.58524 -3.05224,-0.766065 -8.27414,2.007978 -10.47096,5.562521 -1.78138,2.882325 -1.79983,3.174632 -0.37985,6.018098 1.747,3.498322 37.01852,38.723061 52.07768,52.008621 9.23566,8.14792 22.1189,18.46637 23.05644,18.46637 0.19029,0 1.34632,-0.38033 2.56896,-0.84517 z m 29.28488,-26.64562 c 2.66441,-2.66441 4.84437,-5.25183 4.84437,-5.74984 0,-3.81507 -46.57709,-48.955902 -68.67803,-66.560266 -6.70069,-5.337389 -9.04625,-6.111142 -12.47162,-4.114123 -4.64172,2.706158 -10.34193,8.797413 -10.34193,11.051398 0,1.863235 61.41346,57.889041 74.28029,67.763861 4.68942,3.59895 6.7814,3.19449 12.36692,-2.39103 z"
       id="path869"
       inkscape:connector-curvature="0"
       transform="matrix(0.26458333,0,0,0.26458333,0,87)" />
    <path
       style="opacity:1;fill:#ffffff;fill-opacity:1;fill-rule:nonzero;stroke:none;stroke-width:2.51338577;stroke-linecap:butt;stroke-linejoin:miter;stroke-miterlimit:4;stroke-dasharray:none;stroke-dashoffset:0;stroke-opacity:1;paint-order:stroke fill markers"
       d="m 118.36026,415.5377 c -13.65597,-1.01563 -15.39181,-2.9802 -14.44307,-16.34616 0.34302,-4.83248 1.26847,-9.72882 2.25857,-11.94954 0.92258,-2.0693 5.65225,-8.8578 10.51038,-15.08557 10.62395,-13.61913 11.0349,-14.3693 12.40009,-22.63584 1.87863,-11.37555 -8.1547,-10.17771 84.16046,-10.04758 44.07162,0.0621 81.44051,0.35033 83.04197,0.64045 3.94747,0.71511 4.61196,1.76022 5.61285,8.82778 1.0693,7.55061 2.81372,10.53871 14.95086,25.60998 l 9.58832,11.9063 v 12.22503 c 0,10.68595 -0.21796,12.49427 -1.73132,14.36357 l -1.73132,2.13853 -82.28694,0.23187 c -45.25781,0.12752 -89.62438,0.33134 -98.59237,0.45293 -8.96799,0.12158 -19.6503,-0.0277 -23.73848,-0.33175 z m 179.2981,-9.70424 c 9.82579,-0.38293 17.36744,-1.06508 17.92358,-1.62121 1.37896,-1.37896 2.02227,-6.9106 0.98437,-8.46442 -1.21135,-1.81352 -32.20344,-2.52926 -126.00421,-2.90997 l -73.82737,-0.29964 -0.26342,6.95666 -0.26342,6.95666 2.52807,0.2902 c 4.78897,0.54973 161.98697,-0.24826 178.9224,-0.90828 z m -4.96085,-23.37543 c 11.48055,-0.41338 14.72018,-0.79876 14.72018,-1.75108 0,-0.67157 -2.54772,-4.60262 -5.66161,-8.73567 l -5.66161,-7.51464 -6.341,-0.56687 c -3.48755,-0.31178 -23.4617,-0.64331 -44.387,-0.73673 -20.92531,-0.0934 -53.33235,-0.51307 -72.01566,-0.93256 l -33.96964,-0.76272 -2.09935,2.4053 c -6.27079,7.18467 -12.9446,16.69764 -12.50956,17.83134 0.3932,1.02465 3.50288,1.33787 15.25119,1.53616 23.09106,0.38975 136.30457,-0.18312 152.67406,-0.77253 z m -3.88518,-30.54557 c 1.51748,-1.10961 1.31033,-1.27844 -2.27133,-1.85117 -4.97334,-0.79527 -140.39375,-0.83136 -142.4613,-0.038 -2.29408,0.88032 -1.84172,2.03639 0.96307,2.46128 1.37011,0.20755 33.90306,0.43844 72.29545,0.51309 57.2789,0.11138 70.10396,-0.0833 71.47411,-1.08524 z"
       id="path871"
       inkscape:connector-curvature="0"
       transform="matrix(0.26458333,0,0,0.26458333,0,87)" />
    <path
       style="opacity:1;fill:#ffffff;fill-opacity:1;fill-rule:nonzero;stroke:none;stroke-width:2.51338577;stroke-linecap:butt;stroke-linejoin:miter;stroke-miterlimit:4;stroke-dasharray:none;stroke-dashoffset:0;stroke-opacity:1;paint-order:stroke fill markers"
       d="m 117.86445,415.51994 c -13.09336,-1.06375 -14.80113,-3.03332 -14.05017,-16.20403 0.58037,-10.17887 2.41947,-14.08121 13.01294,-27.61183 9.43583,-12.05201 10.87902,-14.75752 12.14682,-22.77133 1.68319,-10.63943 -7.83051,-9.58922 85.52347,-9.4409 45.36243,0.0721 82.16756,0.48771 83.3608,0.94137 2.78822,1.06008 2.96595,1.414 4.03092,8.02683 1.21208,7.52634 3.99959,12.33717 15.12719,26.10724 l 9.39814,11.62993 0.013,12.35518 c 0.0114,10.82568 -0.20125,12.61992 -1.71814,14.49372 l -1.73116,2.13853 -59.18771,0.22782 c -32.55323,0.12529 -77.12367,0.32911 -99.04542,0.45292 -21.92175,0.12382 -43.01807,-0.0316 -46.88072,-0.34545 z m 194.26994,-10.36563 c 2.79509,-0.47955 3.52561,-1.08424 4.35844,-3.60771 1.67268,-5.06827 0.27382,-6.38544 -7.53275,-7.09286 -8.9691,-0.81276 -183.77055,-2.43728 -188.75421,-1.75419 l -3.92406,0.53785 v 6.7764 6.77639 l 96.24733,-0.52989 c 52.93604,-0.29143 97.7584,-0.78913 99.60525,-1.10599 z m -5.65159,-23.54766 c 1.01826,-1.01854 -3.52988,-8.71921 -8.70637,-14.74117 l -2.60142,-3.02632 -68.83835,-0.77384 c -37.86109,-0.42562 -72.91471,-0.99905 -77.89692,-1.27429 l -9.05857,-0.50045 -4.57826,5.65939 c -8.81019,10.89066 -10.9011,14.27441 -9.42847,15.25821 1.91529,1.27953 179.81855,0.68865 181.10836,-0.60153 z m -17.55928,-29.60554 c 0.37344,-0.37367 0.37348,-0.98512 1e-4,-1.35879 -0.80966,-0.81027 -139.1753,-1.47446 -143.42792,-0.68849 -4.3062,0.79588 -3.59363,2.12122 1.35879,2.52725 7.99813,0.65574 141.38436,0.2051 142.06903,-0.47997 z"
       id="path873"
       inkscape:connector-curvature="0"
       transform="matrix(0.26458333,0,0,0.26458333,0,87)" />
    <path
       style="opacity:1;fill:#ffffff;fill-opacity:1;fill-rule:nonzero;stroke:none;stroke-width:2.51338577;stroke-linecap:butt;stroke-linejoin:miter;stroke-miterlimit:4;stroke-dasharray:none;stroke-dashoffset:0;stroke-opacity:1;paint-order:stroke fill markers"
       d="m 117.63879,415.55055 c -9.33602,-0.69544 -12.84677,-2.44755 -13.66721,-6.82092 -0.98099,-5.22912 0.17459,-16.9294 2.10215,-21.28434 0.96539,-2.1811 5.43434,-8.85727 9.93099,-14.83593 9.80956,-13.04259 11.83185,-16.82114 12.62795,-23.59468 0.38538,-3.27897 1.31049,-5.97736 2.53885,-7.40542 l 1.93256,-2.24673 81.30884,0.12919 c 45.41196,0.0722 82.2521,0.48781 83.44539,0.9415 2.78924,1.06047 3.15212,1.74507 4.13898,7.80856 1.23534,7.59026 3.85962,12.18431 14.65695,25.65843 l 9.78645,12.21265 v 12.4472 c 0,11.61682 -0.13597,12.602 -2.03818,14.76748 l -2.03817,2.32028 -98.73845,0.22135 c -54.30614,0.12173 -102.00034,-0.0216 -105.9871,-0.31862 z m 160.09129,-9.74007 c 39.71435,-0.67691 38.77527,-0.52192 38.94317,-6.42719 0.046,-1.61771 -0.45489,-3.27412 -1.11309,-3.6809 -0.6582,-0.40679 -5.71487,-1.01406 -11.23706,-1.34949 -10.89643,-0.66188 -179.07774,-2.02274 -184.64433,-1.49407 l -3.39696,0.32261 v 6.69878 6.69879 l 62.73061,-0.0776 c 34.50184,-0.0427 78.92478,-0.35359 98.71766,-0.69095 z m 9.7483,-23.58801 c 16.12847,-0.4819 18.59647,-0.74718 18.84089,-2.02518 0.15469,-0.80885 -2.16528,-4.71745 -5.1555,-8.68577 l -5.43677,-7.21513 -23.28902,-0.59927 c -12.80898,-0.32959 -35.35008,-0.6279 -50.09135,-0.6629 -14.74128,-0.035 -39.43902,-0.38566 -54.88389,-0.77924 -27.88887,-0.71068 -28.09263,-0.70247 -29.69253,1.19596 -5.15715,6.11944 -12.42983,16.24193 -12.42983,17.30046 0,0.68014 0.71336,1.42304 1.58525,1.65089 2.35748,0.61607 139.03898,0.46299 160.55275,-0.17982 z m 1.48302,-30.25966 c 0.35261,-0.3526 0.34453,-0.93766 -0.0179,-1.30012 -0.84839,-0.84839 -135.95025,-1.56579 -141.38522,-0.75077 -7.05894,1.05856 -4.49806,2.24021 5.63724,2.60116 16.8675,0.6007 135.09412,0.12152 135.76591,-0.55027 z"
       id="path875"
       inkscape:connector-curvature="0"
       transform="matrix(0.26458333,0,0,0.26458333,0,87)" />
  </g>
</svg>
