<?xml version="1.0" encoding="UTF-8" standalone="no"?>
<!-- Created with Inkscape (http://www.inkscape.org/) -->

<svg
   xmlns:dc="http://purl.org/dc/elements/1.1/"
   xmlns:cc="http://creativecommons.org/ns#"
   xmlns:rdf="http://www.w3.org/1999/02/22-rdf-syntax-ns#"
   xmlns:svg="http://www.w3.org/2000/svg"
   xmlns="http://www.w3.org/2000/svg"
   xmlns:xlink="http://www.w3.org/1999/xlink"
   xmlns:sodipodi="http://sodipodi.sourceforge.net/DTD/sodipodi-0.dtd"
   xmlns:inkscape="http://www.inkscape.org/namespaces/inkscape"
   width="210mm"
   height="297mm"
   viewBox="0 0 210 297"
   version="1.1"
   id="svg8"
   inkscape:version="0.92.2 (5c3e80d, 2017-08-06)"
   sodipodi:docname="logoS.svg">
  <defs
     id="defs2">
    <linearGradient
       inkscape:collect="always"
       id="linearGradient943">
      <stop
         style="stop-color:#000000;stop-opacity:1;"
         offset="0"
         id="stop939" />
      <stop
         style="stop-color:#000000;stop-opacity:0;"
         offset="1"
         id="stop941" />
    </linearGradient>
    <linearGradient
       inkscape:collect="always"
       xlink:href="#linearGradient943"
       id="linearGradient945"
       x1="105.6957"
       y1="127.01647"
       x2="167.01025"
       y2="127.01647"
       gradientUnits="userSpaceOnUse"
       gradientTransform="matrix(1.3914411,0,0,1.4084487,-106.82062,-106.04977)" />
  </defs>
  <sodipodi:namedview
     id="base"
     pagecolor="#ffffff"
     bordercolor="#666666"
     borderopacity="1.0"
     inkscape:pageopacity="0.0"
     inkscape:pageshadow="2"
     inkscape:zoom="0.76508705"
     inkscape:cx="483.11129"
     inkscape:cy="986.53189"
     inkscape:document-units="mm"
     inkscape:current-layer="layer1"
     showgrid="false"
     inkscape:window-width="1366"
     inkscape:window-height="705"
     inkscape:window-x="-8"
     inkscape:window-y="-8"
     inkscape:window-maximized="1" />
  <metadata
     id="metadata5">
    <rdf:RDF>
      <cc:Work
         rdf:about="">
        <dc:format>image/svg+xml</dc:format>
        <dc:type
           rdf:resource="http://purl.org/dc/dcmitype/StillImage" />
        <dc:title></dc:title>
      </cc:Work>
    </rdf:RDF>
  </metadata>
  <g
     inkscape:label="Capa 1"
     inkscape:groupmode="layer"
     id="layer1">
    <path
       style="fill:#5599ff;stroke-width:0.99999994"
       d="m 24.04207,119.5773 c 2.926639,-2.92137 10.435663,-10.3639 16.686754,-16.53898 6.251063,-6.175093 11.572755,-11.588381 11.825983,-12.02955 0.253855,-0.442295 0.266336,-0.980815 0.02783,-1.200406 -0.654965,-0.603028 -21.51107,-12.847179 -21.883275,-12.847179 -0.178125,0 -6.871657,6.503596 -14.874334,14.452416 L 1.2746706,105.86602 1.247468,53.367908 1.2202653,0.86978968 H 53.923637 c 28.986905,0 52.703443,0.18077012 52.703443,0.40167272 0,0.2209025 -0.70587,1.0547069 -1.56859,1.8528607 -0.86274,0.7981735 -5.655294,5.5966963 -10.650122,10.6633879 l -9.081505,9.212163 4.728103,4.622627 c 4.079343,3.988326 5.106102,5.351181 7.482836,9.931979 1.515098,2.920137 3.012828,5.310345 3.328258,5.31157 0.31545,0.0012 5.81967,-5.222866 12.23159,-11.609107 6.41189,-6.386243 11.7979,-11.611351 11.96884,-11.611351 0.17103,0 0.31083,23.679739 0.31083,52.621642 V 124.88887 H 72.049092 18.720876 Z m 32.434124,-2.39163 c 3.133039,-0.85713 6.912707,-3.39214 9.205955,-6.17443 0.803391,-0.97471 2.133372,-3.38385 2.955533,-5.35365 C 71.106877,99.74173 75.164445,94.26654 82.435963,87.038621 89.937765,79.581772 92.291332,76.440453 94.428669,71.031982 97.993875,62.01022 97.911418,51.439432 94.20896,42.862571 90.401351,34.042171 82.120649,25.874556 73.650223,22.584625 67.327445,20.128854 66.074355,19.907 58.484573,19.899698 52.122152,19.894064 50.660666,20.047414 47.589157,21.046881 36.940626,24.51168 29.02529,31.069747 24.531474,40.150744 c -2.681305,5.418316 -3.837281,9.44017 -2.997065,10.427253 1.069595,1.256604 5.060714,3.32422 5.512923,2.856038 0.231966,-0.240197 0.913745,-2.207645 1.515062,-4.372149 1.588974,-5.719653 3.753639,-9.364282 8.114303,-13.662051 6.341145,-6.249672 13.194632,-8.948849 22.638524,-8.915963 7.637634,0.02652 13.098901,1.978896 19.863504,7.10079 8.024677,6.075998 12.657925,18.816811 10.583537,29.103374 -0.516405,2.560785 -1.643473,5.734992 -2.949897,8.308016 -1.805492,3.555911 -3.033926,5.070993 -8.413112,10.376098 -6.999157,6.902779 -10.697524,11.922885 -15.377831,20.87363 -3.439865,6.57847 -5.321052,8.46651 -9.255338,9.2892 -3.203417,0.66985 -5.496108,0.27247 -8.849718,-1.53378 -2.889216,-1.55616 -4.09618,-1.41947 -5.198494,0.58876 -1.151222,2.0973 0.795668,4.31851 5.404566,6.16609 3.529266,1.41477 7.239543,1.55516 11.353756,0.42962 z M 80.637943,72.390755 c 1.60806,-1.709167 3.618289,-5.947767 4.447853,-9.378424 1.477432,-6.10978 0.613027,-12.27087 -2.543304,-18.127256 -8.231849,-15.273743 -29.326152,-18.532561 -41.843431,-6.4643 -2.445959,2.358222 -6.013015,7.39882 -6.027611,8.517635 -0.0056,0.490394 3.862264,2.847264 4.6736,2.847264 0.354414,0 1.208995,-1.03766 1.899052,-2.305926 4.191438,-7.703496 13.926475,-11.967758 22.572473,-9.887451 8.213802,1.976293 14.615697,8.806171 15.976471,17.044497 0.709426,4.295121 -0.103662,8.322566 -2.594161,12.850897 -1.095106,1.99111 -1.991097,3.692417 -1.991097,3.780755 0,0.306197 3.296644,2.21742 3.839084,2.225715 0.2998,0.0042 1.015793,-0.491971 1.591071,-1.103406 z"
       id="path929"
       inkscape:connector-curvature="0" />
    <path
       style="fill:url(#linearGradient945);fill-opacity:1;stroke:none;stroke-width:0.26458332px;stroke-linecap:butt;stroke-linejoin:miter;stroke-opacity:1"
       d="m 63.94897,21.353712 c 11.669279,-1.359334 21.123023,7.73623 37.45366,21.231184 8.85196,7.314891 14.06116,11.045843 23.0879,18.672973 l 0.88679,63.631001 c -27.270753,-2.69062 -81.536983,-3.7238 -83.912772,-10.67109 l -1.07607,-2.92368 C 66.192906,121.6879 74.733126,87.586029 94.375223,68.392281 L 89.889969,38.557465 Z"
       id="path937"
       inkscape:connector-curvature="0"
       sodipodi:nodetypes="csccccccc" />
    <path
       style="opacity:1;fill:#ffffff;fill-opacity:1;fill-rule:nonzero;stroke:none;stroke-width:0.66499996;stroke-linecap:butt;stroke-linejoin:miter;stroke-miterlimit:4;stroke-dasharray:none;stroke-dashoffset:0;stroke-opacity:1;paint-order:stroke fill markers"
       d="m 44.466193,116.10958 c -3.620765,-1.70871 -5.009456,-3.09743 -4.698358,-4.69844 0.428747,-2.20644 2.113429,-2.51735 5.544556,-1.02328 1.837152,0.79997 4.569367,1.408 6.320848,1.40662 5.281602,-0.004 7.670777,-2.24404 13.189491,-12.365332 3.337255,-6.120515 7.068337,-11.001459 14.422956,-18.867887 8.595935,-9.194123 11.042417,-14.341737 11.026605,-23.200902 -0.01852,-10.373646 -4.558868,-19.25435 -12.81874,-25.072846 -5.049969,-3.557347 -9.671562,-5.332104 -15.252359,-5.857125 -9.426722,-0.88683 -18.555068,2.239605 -25.160948,8.617563 -4.630686,4.470917 -6.125079,6.828515 -8.355848,13.182432 -1.835475,5.227996 -2.324163,5.528405 -5.532164,3.400752 -1.352119,-0.896772 -1.52232,-1.398131 -1.228181,-3.617885 0.615955,-4.648416 4.770567,-12.057951 9.352953,-16.680491 4.669781,-4.710708 9.234403,-7.594331 15.251415,-9.634832 5.705383,-1.934821 18.363214,-1.934821 24.068593,0 6.193986,2.100516 10.632068,4.952952 15.619035,10.038642 7.72065,7.873482 10.994015,16.786432 10.295583,28.033533 -0.657262,10.584182 -3.430875,15.880686 -14.399048,27.496482 -8.554769,9.059894 -9.636346,10.500999 -13.818877,18.412406 -2.720217,5.1454 -3.922539,6.73215 -6.422494,8.476 -5.538477,3.86341 -11.856679,4.57294 -17.405018,1.95459 z"
       id="path933"
       inkscape:connector-curvature="0" />
    <path
       style="opacity:1;fill:#ffffff;fill-opacity:1;fill-rule:nonzero;stroke:none;stroke-width:0.66499996;stroke-linecap:butt;stroke-linejoin:miter;stroke-miterlimit:4;stroke-dasharray:none;stroke-dashoffset:0;stroke-opacity:1;paint-order:stroke fill markers"
       d="M 77.304684,72.485847 C 76.33555,71.967462 75.54262,71.415453 75.54262,71.259151 c 0,-0.156297 0.937098,-2.117047 2.082441,-4.35722 1.870498,-3.6585 2.082442,-4.634137 2.082442,-9.585996 0,-4.886791 -0.213827,-5.903655 -1.882575,-8.952753 C 73.213756,39.937766 64.20137,35.573958 55.262677,37.438514 48.999124,38.745059 45.824785,41.038437 40.430896,48.154109 39.296534,49.650571 39.20616,49.663794 37.219494,48.62389 36.095187,48.035382 35.1753,47.152499 35.1753,46.661921 c 0,-1.658626 5.661295,-8.465187 8.838913,-10.627005 8.352855,-5.682664 20.639145,-6.087367 28.873004,-0.951059 8.605908,5.368391 13.992674,16.645293 12.321709,25.794844 -0.820416,4.492283 -2.958563,9.54929 -4.75227,11.239755 -1.26937,1.196311 -1.542713,1.228169 -3.151972,0.367391 z"
       id="path935"
       inkscape:connector-curvature="0" />
    <path
       style="opacity:1;fill:#ffffff;fill-opacity:1;fill-rule:nonzero;stroke:none;stroke-width:0.66499996;stroke-linecap:butt;stroke-linejoin:miter;stroke-miterlimit:4;stroke-dasharray:none;stroke-dashoffset:0;stroke-opacity:1;paint-order:stroke fill markers"
       d="m 50.108591,117.87602 c -2.234583,-0.14528 -4.34954,-0.74988 -6.711239,-1.91852 -2.766876,-1.36914 -4.197748,-3.00614 -3.950066,-4.51911 0.111204,-0.67928 0.709315,-1.66421 1.25838,-2.07218 0.425073,-0.31584 0.706671,-0.39122 1.349922,-0.36131 0.756243,0.0352 1.370634,0.25569 2.933049,1.05279 1.75116,0.89338 2.449946,1.14603 4.027205,1.45608 1.955971,0.38449 3.243476,0.37652 5.039455,-0.0311 2.013947,-0.45722 3.288923,-1.18148 4.674784,-2.65559 1.459061,-1.55196 2.426845,-3.04525 4.51712,-6.9699 2.02776,-3.807274 3.495442,-6.298058 5.177032,-8.785876 l 0.628745,-0.930193 4.237563,-0.0015 4.237567,-0.0015 -0.131533,0.163985 c -0.07234,0.0902 -0.472909,0.548093 -0.890151,1.017557 -1.788225,2.012052 -3.306602,3.964767 -4.4442,5.71549 -1.069769,1.646337 -1.699294,2.744377 -3.490093,6.087577 -1.866248,3.48405 -2.555801,4.65153 -3.503103,5.93112 -1.388781,1.8759 -3.315034,3.39108 -6.008498,4.72623 -2.356486,1.16812 -4.714529,1.76156 -7.366159,1.8538 l -1.047747,0.0365 0.492157,0.0896 c 0.270684,0.0493 0.510675,0.10887 0.533313,0.13253 0.04837,0.0506 -0.645383,0.0432 -1.563503,-0.0165 z"
       id="path947"
       inkscape:connector-curvature="0" />
    <path
       style="opacity:1;fill:#ffffff;fill-opacity:1;fill-rule:nonzero;stroke:none;stroke-width:0.66499996;stroke-linecap:butt;stroke-linejoin:miter;stroke-miterlimit:4;stroke-dasharray:none;stroke-dashoffset:0;stroke-opacity:1;paint-order:stroke fill markers"
       d="m 99.548347,40.942468 c -0.594128,-0.97925 -1.704183,-2.940824 -2.466789,-4.359053 -1.963752,-3.652004 -3.522651,-5.610193 -7.832402,-9.838576 l -3.778968,-3.70762 10.328596,-10.454842 10.328596,-10.4548426 9.12149,8.9121926 c 5.01683,4.901705 9.12151,8.935411 9.12151,8.963792 0,0.02839 -1.22826,1.263294 -2.72943,2.744247 -1.50118,1.480953 -5.51341,5.439516 -8.9161,8.796809 -6.75406,6.663985 -11.55377,11.17835 -11.88489,11.17835 -0.11625,0 -0.69748,-0.801205 -1.291613,-1.780457 z"
       id="path951"
       inkscape:connector-curvature="0" />
  </g>
</svg>
