<?xml version="1.0" encoding="UTF-8" standalone="no"?>
<!-- Created with Inkscape (http://www.inkscape.org/) -->

<svg
   xmlns:dc="http://purl.org/dc/elements/1.1/"
   xmlns:cc="http://creativecommons.org/ns#"
   xmlns:rdf="http://www.w3.org/1999/02/22-rdf-syntax-ns#"
   xmlns:svg="http://www.w3.org/2000/svg"
   xmlns="http://www.w3.org/2000/svg"
   xmlns:sodipodi="http://sodipodi.sourceforge.net/DTD/sodipodi-0.dtd"
   xmlns:inkscape="http://www.inkscape.org/namespaces/inkscape"
   width="210mm"
   height="297mm"
   viewBox="0 0 210 297"
   version="1.1"
   id="svg8"
   inkscape:version="0.92.2 (5c3e80d, 2017-08-06)"
   sodipodi:docname="losmanos.svg">
  <defs
     id="defs2" />
  <sodipodi:namedview
     id="base"
     pagecolor="#ffffff"
     bordercolor="#666666"
     borderopacity="1.0"
     inkscape:pageopacity="0.0"
     inkscape:pageshadow="2"
     inkscape:zoom="0.57456337"
     inkscape:cx="686.44916"
     inkscape:cy="667.07656"
     inkscape:document-units="mm"
     inkscape:current-layer="layer1"
     showgrid="false"
     inkscape:window-width="1366"
     inkscape:window-height="705"
     inkscape:window-x="-8"
     inkscape:window-y="-8"
     inkscape:window-maximized="1" />
  <metadata
     id="metadata5">
    <rdf:RDF>
      <cc:Work
         rdf:about="">
        <dc:format>image/svg+xml</dc:format>
        <dc:type
           rdf:resource="http://purl.org/dc/dcmitype/StillImage" />
        <dc:title></dc:title>
      </cc:Work>
    </rdf:RDF>
  </metadata>
  <g
     inkscape:label="Capa 1"
     inkscape:groupmode="layer"
     id="layer1">
    <path
       style="opacity:1;fill:#002255;fill-opacity:1;fill-rule:nonzero;stroke:none;stroke-width:2.51338577;stroke-linecap:butt;stroke-linejoin:miter;stroke-miterlimit:4;stroke-dasharray:none;stroke-dashoffset:0;stroke-opacity:1;paint-order:stroke fill markers"
       d="M -3.4804688 125.24023 L -3.4804688 611.25391 L 354.85352 611.25391 C 351.63278 611.15806 347.21828 611.08273 340.72656 611.06445 L 296.67969 610.94922 L 297.88867 587.48633 C 298.0747 576.01799 297.72657 561.60098 297.11523 555.44727 C 295.0402 534.55982 290.01981 492.4088 288.9375 486.78906 C 286.8249 475.81974 284.87092 472.94235 268.23242 456.27539 C 251.84576 439.86068 239.51403 424.71876 232.35742 412.22852 C 230.05097 408.20313 227.29186 403.99385 226.22656 402.875 C 224.0378 400.5761 222.05078 396.95631 222.05078 395.26758 C 222.05078 394.64592 223.15585 393.0138 224.50586 391.64062 C 226.37234 389.74213 228.01981 389.14453 231.38477 389.14453 C 235.07207 389.14453 236.7159 389.86472 241.24219 393.4668 C 244.22979 395.84438 249.44274 400.79661 252.82617 404.47266 C 256.2096 408.14878 261.2561 412.41919 264.04102 413.96094 L 269.10352 416.76367 L 271.94727 413.66797 C 275.6583 409.6272 277.86533 404.77572 279.11133 397.91992 C 280.15486 392.17803 279.67741 387.51347 276.5957 373.37891 C 272.82121 356.06763 272.66338 318.24151 276.3418 312.53125 C 278.10499 309.79414 281.49272 308.33044 284.625 308.95312 C 288.06093 309.63618 290.33523 316.45224 290.80469 327.46875 C 291.22217 337.2647 294.81001 359.24541 296.90625 364.85352 C 297.98674 367.74417 300.68075 370.83594 302.12109 370.83594 C 302.65688 370.83594 303.0712 362.98239 303.09766 352.27148 C 303.12351 342.06189 303.50342 327.9219 303.94336 320.84766 C 304.81628 306.81126 306.30879 302.51822 311.30469 299.66602 C 313.7398 298.27578 314.18874 298.32619 316.75391 300.26562 C 319.1496 302.07694 319.72314 303.52943 320.76172 310.41602 C 321.42831 314.83622 322.23412 327.83442 322.55273 339.30273 C 322.87135 350.77105 323.4261 362.67314 323.78516 365.75 L 324.43945 371.34375 L 325.18555 364.22461 C 325.59627 360.3086 325.91538 347.59162 325.89648 335.9668 C 325.85472 311.78872 326.35483 309.80664 332.5 309.80664 C 335.61618 309.80664 336.11735 310.25716 338.44531 315.14648 C 342.82817 324.35164 345.8356 362.4983 343.45703 378.71875 C 343.10795 381.09634 343.12085 383.04102 343.48633 383.04102 C 345.92843 383.04102 350.12904 361.78122 350.16797 349.2207 C 350.1925 341.32668 351.15779 337.87476 354.29102 334.47266 C 357.49655 330.99204 361.35247 331.4604 363.54297 335.59766 C 365.1597 338.65125 365.27618 340.66758 364.6543 354.66992 C 364.27185 363.28129 363.56605 384.28705 363.08594 401.34961 C 362.19215 433.1145 361.53721 438.7062 357.15039 451.91992 C 355.99548 455.39875 355.04883 459.60426 355.04883 461.26562 C 355.04883 467.3724 371.39809 540.94748 378.41602 573.75586 L 383.12305 595.76172 L 383.95898 611.25391 L 431.16992 611.25391 C 426.68806 611.15313 423.20412 611.03631 422.51367 610.89258 L 427.2207 570.17969 C 431.77054 530.82944 450.58594 443.50033 450.58594 436.22852 C 450.58594 434.2502 449.64124 429.24216 448.48633 425.09961 C 444.09951 409.36491 443.44261 402.70605 442.54883 364.88086 C 442.06871 344.56296 441.36292 319.54922 440.98047 309.29492 C 440.35859 292.62112 440.47702 290.2202 442.09375 286.58398 C 444.28425 281.65743 448.14017 281.09947 451.3457 285.24414 C 454.47893 289.29529 455.44422 293.40655 455.46875 302.80664 C 455.50768 317.7635 459.70633 343.07813 462.14844 343.07812 C 462.51392 343.07812 462.52876 340.76286 462.17969 337.93164 C 459.80112 318.6165 462.80855 273.19185 467.19141 262.23047 C 469.51937 256.40837 470.02054 255.87305 473.13672 255.87305 C 479.28189 255.87305 479.782 258.23445 479.74023 287.02539 C 479.72134 300.86808 480.04045 316.00873 480.45117 320.67188 L 481.19727 329.15039 L 481.84961 322.48828 C 482.20866 318.82441 482.76342 304.65437 483.08203 290.99805 C 483.40065 277.34172 484.20645 261.86118 484.87305 256.59766 C 485.91162 248.39717 486.48712 246.66663 488.88281 244.50977 C 491.44798 242.20028 491.89692 242.14142 494.33203 243.79688 C 499.32792 247.19326 500.81849 252.30521 501.69141 269.01953 C 502.13134 277.44346 502.51321 294.28198 502.53906 306.43945 C 502.56552 319.19381 502.97789 328.54492 503.51367 328.54492 C 504.95401 328.54492 507.64998 324.86399 508.73047 321.42188 C 510.82671 314.74377 514.41454 288.5692 514.83203 276.9043 C 515.30149 263.786 517.57583 255.67075 521.01172 254.85742 C 524.144 254.11592 527.5317 255.85786 529.29492 259.11719 C 532.97331 265.91688 532.81548 310.95823 529.04102 331.57227 C 525.9593 348.40355 525.48183 353.95951 526.52539 360.79688 C 527.77139 368.96069 529.97841 374.73713 533.68945 379.54883 L 536.53125 383.23438 L 541.5957 379.89648 C 544.38065 378.06062 549.42711 372.97706 552.81055 368.59961 C 556.19398 364.22221 561.40697 358.32531 564.39453 355.49414 C 568.92086 351.20486 570.56465 350.3457 574.25195 350.3457 C 577.61687 350.3457 579.26438 351.05767 581.13086 353.31836 C 582.48087 354.95349 583.58594 356.89845 583.58594 357.63867 C 583.58594 359.6496 581.59892 363.9598 579.41016 366.69727 C 578.34486 368.02958 575.58579 373.0425 573.2793 377.83594 C 566.12269 392.70909 553.78901 410.73872 537.40234 430.28516 C 520.76384 450.13191 518.81182 453.55901 516.69922 466.62109 C 515.61691 473.31297 510.59652 523.50449 508.52148 548.37695 C 507.91015 555.70481 507.56202 572.87491 507.74805 586.53125 L 508.08398 611.25391 L 717.56445 611.25391 L 609.82031 611.0332 L 621.46484 457.75 L 621.41602 457.75 L 621.75391 437.25 C 621.93986 425.97499 621.59365 411.8 620.98242 405.75 C 618.90739 385.21466 613.88504 343.775 612.80273 338.25 C 610.69013 327.46557 608.73811 324.636 592.09961 308.25 C 575.71294 292.11195 563.37927 277.22499 556.22266 264.94531 C 553.9162 260.98776 551.15709 256.85 550.0918 255.75 C 547.90303 253.4899 545.91602 249.92979 545.91602 248.26953 C 545.91602 247.65837 547.02108 246.05312 548.37109 244.70312 C 550.23758 242.83664 551.88505 242.25 555.25 242.25 C 558.93731 242.25 560.58114 242.95864 565.10742 246.5 C 568.09503 248.8375 573.30797 253.70619 576.69141 257.32031 C 580.07484 260.93443 585.12134 265.13074 587.90625 266.64648 L 592.9707 269.40234 L 595.81445 266.35938 C 599.5255 262.3867 601.73252 257.61722 602.97852 250.87695 C 604.02204 245.23187 603.54265 240.64634 600.46094 226.75 C 596.68644 209.73052 596.52868 172.54175 600.20703 166.92773 C 601.97022 164.23676 605.35795 162.79797 608.49023 163.41016 C 611.92617 164.0817 614.20242 170.78247 614.67188 181.61328 C 615.08936 191.2441 618.67525 212.85556 620.77148 218.36914 C 621.85198 221.21106 624.54794 224.25 625.98828 224.25 C 626.52407 224.25 626.93643 216.53036 626.96289 206 C 626.98935 195.9625 627.37061 182.05853 627.81055 175.10352 C 628.68347 161.30373 630.17403 157.08342 635.16992 154.2793 C 636.38643 153.59649 637.10895 153.26882 637.8457 153.34766 L 637.84766 153.34766 C 638.5845 153.42786 639.33761 153.91655 640.61914 154.86914 C 643.01483 156.64992 643.58838 158.07715 644.62695 164.84766 C 645.29355 169.19335 646.09935 181.975 646.41797 193.25 C 646.73658 204.525 647.29134 216.225 647.65039 219.25 L 648.30273 224.75 L 649.05078 217.75 C 649.4615 213.9 649.77866 201.39762 649.75977 189.96875 C 649.71781 166.19822 650.21811 164.25 656.36328 164.25 C 659.47946 164.25 659.98258 164.69309 662.31055 169.5 C 666.6934 178.55 669.70084 216.05293 667.32227 232 C 666.97304 234.3375 666.9869 236.25 667.35352 236.25 C 669.79562 236.25 673.99623 215.34684 674.03516 202.99805 C 674.05783 195.23709 675.02302 191.84475 678.15625 188.5 C 681.36178 185.07806 685.2177 185.53795 687.4082 189.60547 C 689.02493 192.60759 689.14337 194.58915 688.52148 208.35547 C 688.13903 216.82168 687.4332 237.475 686.95312 254.25 C 686.05934 285.47943 685.40245 290.9758 681.01562 303.9668 C 679.86071 307.38694 678.91602 311.52291 678.91602 313.15625 C 678.91602 319.16007 694.24669 391.72478 702.28125 423.75 L 710.56055 456.75 L 710.55664 456.75 C 724.23003 509.76256 720.0733 580.99387 717.56445 611.25391 L 794.14453 611.25391 L 794.14453 125.24023 L -3.4804688 125.24023 z M 508.08398 611.25391 L 431.16992 611.25391 C 439.44221 611.43991 452.46009 611.54707 467.08594 611.49805 L 508.08594 611.36133 L 508.08398 611.25391 z M 383.95898 611.25391 L 354.85352 611.25391 C 362.82054 611.49099 362.67188 611.86133 362.67188 611.86133 L 383.99219 611.86133 L 383.95898 611.25391 z M 175.875 152.76562 C 176.61245 152.68601 177.33518 153.01386 178.55273 153.69727 C 183.54863 156.50139 185.03919 160.72169 185.91211 174.52148 C 186.35205 181.47649 186.73387 195.38047 186.75977 205.41797 C 186.78622 215.94833 187.19859 223.66797 187.73438 223.66797 C 189.17471 223.66797 191.87068 220.62903 192.95117 217.78711 C 195.04741 212.27353 198.63329 190.66207 199.05078 181.03125 C 199.52024 170.20044 201.79649 163.49966 205.23242 162.82812 C 208.36471 162.21594 211.75245 163.65473 213.51562 166.3457 C 217.19405 171.95971 217.03622 209.14849 213.26172 226.16797 C 210.18001 240.06431 209.70061 244.64984 210.74414 250.29492 C 211.99014 257.03518 214.19716 261.80466 217.9082 265.77734 L 220.75195 268.82031 L 225.81641 266.06445 C 228.60131 264.54871 233.64782 260.3524 237.03125 256.73828 C 240.41468 253.12416 245.62763 248.25547 248.61523 245.91797 C 253.14152 242.37661 254.78535 241.66797 258.47266 241.66797 C 261.83761 241.66797 263.48508 242.25461 265.35156 244.12109 C 266.70157 245.47109 267.80664 247.07634 267.80664 247.6875 C 267.80664 249.34776 265.81962 252.90787 263.63086 255.16797 C 262.56556 256.26797 259.80646 260.40573 257.5 264.36328 C 250.34339 276.64296 238.00972 291.52992 221.62305 307.66797 C 204.98455 324.05397 203.03253 326.88354 200.91992 337.66797 C 199.83762 343.19297 194.81527 384.63262 192.74023 405.16797 C 192.1289 411.21797 191.78272 425.39296 191.96875 436.66797 L 192.30664 457.16797 L 192.25781 457.16797 L 204.77344 610.88477 L 96.158203 610.67188 C 93.649378 580.41188 89.492617 509.18054 103.16602 456.16797 L 103.16211 456.16797 L 111.44141 423.16797 C 119.47598 391.14275 134.80664 318.57804 134.80664 312.57422 C 134.80664 310.94088 133.86194 306.80491 132.70703 303.38477 C 128.32021 290.39377 127.66331 284.8974 126.76953 253.66797 C 126.28942 236.89297 125.58362 216.23965 125.20117 207.77344 C 124.57929 194.00712 124.69772 192.02556 126.31445 189.02344 C 128.50495 184.95592 132.36088 184.49603 135.56641 187.91797 C 138.69963 191.26272 139.663 194.65506 139.6875 202.41602 C 139.72643 214.76481 143.92704 235.66797 146.36914 235.66797 C 146.73462 235.66797 146.74751 233.75547 146.39844 231.41797 C 144.01987 215.4709 147.0273 177.96797 151.41016 168.91797 C 153.73812 164.11106 154.24124 163.66797 157.35742 163.66797 C 163.50259 163.66797 164.00274 165.61619 163.96094 189.38672 C 163.94204 200.81559 164.2592 213.31797 164.66992 217.16797 L 165.41797 224.16797 L 166.07031 218.66797 C 166.42937 215.64297 166.98412 203.94297 167.30273 192.66797 C 167.62135 181.39297 168.42715 168.61132 169.09375 164.26562 C 170.13233 157.49513 170.70587 156.06789 173.10156 154.28711 C 174.38415 153.33374 175.13755 152.84522 175.875 152.76562 z "
       transform="scale(0.26458333)"
       id="rect910" />
  </g>
</svg>
